<?xml version="1.0" encoding="iso-8859-1"?>
<!-- Generator: Adobe Illustrator 19.0.0, SVG Export Plug-In . SVG Version: 6.00 Build 0)  -->
<svg version="1.1" id="Capa_1" xmlns="http://www.w3.org/2000/svg" xmlns:xlink="http://www.w3.org/1999/xlink" x="0px" y="0px"
	 viewBox="0 0 496 496" style="enable-background:new 0 0 496 496;" xml:space="preserve">
<path style="fill:#D3A06C;" d="M248,8L248,8c-66.272,0-120,53.728-120,120v56h240v-56C368,61.728,314.272,8,248,8z"/>
<path style="fill:#B27946;" d="M328,152c0,11.584,0,22.144,0,32h40v-56C368,61.728,314.272,8,248,8C248,8,328,48,328,152z"/>
<path style="fill:#92E0C0;" d="M136,456H32l28.088-84.272c7.352-22.048,26.08-38.384,48.92-42.664L192,312h112l82.984,17.064
	c22.848,4.28,41.568,20.616,48.92,42.664L464,456H360H136z"/>
<path style="fill:#48C397;" d="M407.272,456H464l-28.088-84.272c-7.352-22.048-26.08-38.384-48.92-42.664l-80.72-16.592L296,312
	l83.144,48.496c8.152,4.76,13.792,12.872,15.408,22.168L407.272,456z"/>
<path style="fill:#ECECEC;" d="M312,488H184c-8.84,0-16-7.16-16-16v-64c0-8.84,7.16-16,16-16h128c8.84,0,16,7.16,16,16v64
	C328,480.84,320.84,488,312,488z"/>
<polygon style="fill:#B6C1CE;" points="192,392 200,360 296,360 304,392 "/>
<g>
	<polygon style="fill:#F9E0A6;" points="296,280 296,312 248,360 200,312 200,280 	"/>
	<path style="fill:#F9E0A6;" d="M336,152v64c17.672,0,32-14.328,32-32S353.672,152,336,152z"/>
	<path style="fill:#F9E0A6;" d="M160,208v-40v-16c-17.672,0-32,14.328-32,32s14.328,32,32,32h0.4
		C160.168,213.36,160,210.704,160,208z"/>
</g>
<rect x="168" y="472" style="fill:#B6C1CE;" width="160" height="16"/>
<circle style="fill:#148CE0;" cx="248" cy="440" r="48"/>
<circle style="fill:#1261C5;" cx="248" cy="440" r="16"/>
<path style="fill:#F9E0A6;" d="M324.688,136c-3,0-5.88,1.192-8,3.312l-0.4,0.4C298.176,157.824,273.608,168,248,168l6.808-13.608
	c0.784-1.576,1.192-3.304,1.192-5.064v-2.016c0-6.248-5.064-11.312-11.312-11.312c-3,0-5.88,1.192-8,3.312
	C218.32,157.68,193.408,168,167.432,168H160v40c0,48.6,39.4,88,88,88s88-39.4,88-88v-60.688C336,141.064,330.936,136,324.688,136z"
	/>
<path style="fill:#EABD8C;" d="M324.688,136c-3,0-5.88,1.192-8,3.312l-0.4,0.4c-1.376,1.376-2.848,2.608-4.288,3.88V208
	c0,44.52-33.088,81.224-76,87.088c3.936,0.536,7.92,0.912,12,0.912c48.6,0,88-39.4,88-88v-60.688
	C336,141.064,330.936,136,324.688,136z"/>
<path d="M352,464h123.096l-31.6-94.808c-8.264-24.792-29.352-43.176-55.04-47.992L304,305.36v-19.544
	c20.232-14.6,34.512-36.84,38.656-62.488C361.536,220.136,376,203.776,376,184v-56C376,57.424,318.576,0,248,0S120,57.424,120,128
	v56c0,19.752,14.392,36.208,33.24,39.432c4.16,25.648,18.52,47.912,38.76,62.504v19.432l-84.464,15.84
	c-25.68,4.816-46.776,23.2-55.04,47.992L20.904,464H144v-16h-21.752l13.512-54.064l-15.52-3.872L105.752,448H43.096l24.584-73.744
	c6.424-19.28,22.832-33.584,42.808-37.336l50.96-9.552l13.032,58.624C165.968,389.688,160,398.152,160,408v64
	c0,13.232,10.768,24,24,24h128c13.232,0,24-10.768,24-24v-64c0-9.848-5.968-18.312-14.472-22.008l13.032-58.624l50.96,9.552
	c19.976,3.752,36.376,18.056,42.808,37.336L452.904,448h-62.656l-14.488-57.936l-15.52,3.872L373.752,448H352V464z M344,206.528
	V161.48c9.288,3.312,16,12.112,16,22.528S353.288,203.216,344,206.528z M152,206.632c-9.312-3.304-16-12.2-16-22.632
	s6.688-19.328,16-22.632V206.632z M136,152.208V128c0-61.76,50.24-112,112-112s112,50.24,112,112v24.208
	c-4.736-3.584-10.208-6.232-16.256-7.424c-1.256-9.448-9.272-16.784-19.056-16.784c-5.08,0-10.056,2.064-14.056,6.064
	c-13.512,13.512-30.632,22.128-49.176,24.928l0.512-1.024c1.328-2.672,2.032-5.656,2.032-8.64v-2.016
	c0-10.648-8.664-19.312-19.312-19.312c-5.08,0-10.056,2.064-13.656,5.656C214.176,150.504,191.816,159.848,168,160v-16h-8
	C150.96,144,142.704,147.128,136,152.208z M168,208v-32c28.088-0.152,54.472-11.16,74.336-31.024
	c1.928-1.936,5.664-0.36,5.664,2.336v2.016c0,0.512-0.12,1.024-0.352,1.488L235.056,176H248c27.936,0,54.192-10.872,74.336-31.024
	c1.936-1.936,5.664-0.36,5.664,2.336V208c0,44.112-35.888,80-80,80S168,252.112,168,208z M248,304c14.288,0,27.808-3.224,40-8.84
	v13.528l-40,40l-40-40V295.2C220.192,300.816,233.72,304,248,304z M288,440c0,22.056-17.944,40-40,40s-40-17.944-40-40
	s17.944-40,40-40S288,417.944,288,440z M289.752,368l4,16h-91.504l4-16H289.752z M197.328,320.64l31.36,31.36h-34.936l-5.528,22.128
	l-11.048-49.712L197.328,320.64z M184,480c-4.408,0-8-3.584-8-8v-64c0-4.416,3.592-8,8-8h24.888C198.48,410.176,192,424.336,192,440
	s6.48,29.824,16.888,40H184z M320,472c0,4.416-3.592,8-8,8h-24.888C297.52,469.824,304,455.664,304,440s-6.48-29.824-16.888-40H312
	c4.408,0,8,3.584,8,8V472z M307.776,374.128L302.248,352h-34.936l31.36-31.36l20.152,3.776L307.776,374.128z"/>
<path d="M248,464c13.232,0,24-10.768,24-24s-10.768-24-24-24s-24,10.768-24,24S234.768,464,248,464z M248,432c4.408,0,8,3.584,8,8
	s-3.592,8-8,8s-8-3.584-8-8S243.592,432,248,432z"/>
<g>
</g>
<g>
</g>
<g>
</g>
<g>
</g>
<g>
</g>
<g>
</g>
<g>
</g>
<g>
</g>
<g>
</g>
<g>
</g>
<g>
</g>
<g>
</g>
<g>
</g>
<g>
</g>
<g>
</g>
</svg>
